<svg width="1564" height="666" viewBox="0 0 1564 666" fill="none" xmlns="http://www.w3.org/2000/svg">
<path d="M488 638.325V510.197H515.902C522.308 510.197 527.556 511.906 531.647 515.322C535.815 518.738 538.902 523.375 540.909 529.233C542.916 534.969 543.919 541.375 543.919 548.452C543.919 556.384 542.569 563.583 539.867 570.051C537.243 576.519 533.113 581.155 527.479 583.962L544.73 638.325H530.489L514.744 586.707H500.272V638.325H488ZM500.272 572.064H515.207C520.764 572.064 524.816 569.929 527.364 565.658C529.987 561.386 531.3 555.835 531.3 549.001C531.3 542.167 530.026 536.737 527.479 532.71C524.932 528.562 520.803 526.487 515.091 526.487H500.272V572.064Z" fill="#37A586"/>
<path d="M600.116 638.325V510.197H651.636V525.938H612.389V565.841H648.163V581.216H612.389V622.583H651.636V638.325H600.116Z" fill="#37A586"/>
<path d="M734.681 640.521C728.737 640.521 723.527 638.874 719.051 635.579C714.574 632.284 711.062 627.587 708.515 621.485C706.045 615.383 704.772 608.123 704.695 599.703H717.662C717.738 606.537 719.244 612.333 722.177 617.092C725.109 621.851 729.239 624.23 734.565 624.23C739.273 624.23 742.938 622.462 745.563 618.922C748.264 615.261 749.616 610.624 749.616 605.011C749.616 600.497 748.959 596.836 747.647 594.029C746.412 591.222 744.675 588.904 742.437 587.073C740.276 585.243 737.768 583.596 734.912 582.131C732.056 580.667 729.045 579.081 725.882 577.372C719.63 574.077 714.921 569.806 711.757 564.559C708.669 559.313 707.126 552.417 707.126 543.876C707.048 536.676 708.09 530.392 710.252 525.023C712.49 519.653 715.578 515.505 719.514 512.576C723.527 509.526 728.197 508 733.523 508C738.771 508 743.364 509.526 747.3 512.576C751.313 515.626 754.439 519.898 756.678 525.389C758.915 530.759 760.073 537.042 760.151 544.242H747.184C747.184 540.947 746.643 537.836 745.563 534.907C744.483 531.857 742.901 529.354 740.817 527.402C738.733 525.45 736.186 524.474 733.175 524.474C729.316 524.352 726.113 525.876 723.566 529.05C721.096 532.223 719.861 536.616 719.861 542.229C719.861 547.232 720.788 551.076 722.64 553.76C724.492 556.444 727.039 558.702 730.281 560.533C733.523 562.241 737.228 564.255 741.395 566.573C745.409 568.648 748.998 571.149 752.163 574.077C755.326 577.006 757.836 580.85 759.688 585.609C761.617 590.368 762.582 596.408 762.582 603.73C762.582 610.198 761.54 616.238 759.456 621.851C757.372 627.342 754.246 631.857 750.079 635.396C745.911 638.812 740.778 640.521 734.681 640.521Z" fill="#37A586"/>
<path d="M835.195 638.325V525.938H811.23V510.197H871.317V525.938H847.468V638.325H835.195Z" fill="#37A586"/>
<path d="M910.452 638.325L940.322 510.197H953.752L983.391 638.325H970.424L963.477 607.025H930.366L923.419 638.325H910.452ZM933.839 591.649H960.004L946.921 533.26L933.839 591.649Z" fill="#37A586"/>
<path d="M1063.2 640.521C1057.41 640.521 1052.16 638.752 1047.46 635.213C1042.83 631.552 1039.12 625.999 1036.34 618.556C1033.64 611.113 1032.29 601.655 1032.29 590.185V510.197H1044.56V590.368C1044.56 601.595 1046.26 609.832 1049.66 615.078C1053.04 620.325 1057.64 622.949 1063.43 622.949C1069.14 622.949 1073.7 620.325 1077.09 615.078C1080.48 609.832 1082.19 601.595 1082.19 590.368V510.197H1094.46V590.185C1094.46 601.655 1093.03 611.113 1090.18 618.556C1087.4 625.999 1083.61 631.552 1078.83 635.213C1074.12 638.752 1068.91 640.521 1063.2 640.521Z" fill="#37A586"/>
<path d="M1151.87 638.325V510.197H1179.78C1186.19 510.197 1191.44 511.906 1195.52 515.322C1199.69 518.738 1202.78 523.375 1204.78 529.233C1206.79 534.969 1207.79 541.375 1207.79 548.452C1207.79 556.384 1206.45 563.583 1203.74 570.051C1201.12 576.519 1197 581.155 1191.35 583.962L1208.6 638.325H1194.36L1178.62 586.707H1164.15V638.325H1151.87ZM1164.15 572.064H1179.08C1184.64 572.064 1188.69 569.929 1191.24 565.658C1193.87 561.386 1195.17 555.835 1195.17 549.001C1195.17 542.167 1193.9 536.737 1191.35 532.71C1188.81 528.562 1184.68 526.487 1178.97 526.487H1164.15V572.064Z" fill="#37A586"/>
<path d="M1258.79 638.325L1288.66 510.197H1302.09L1331.73 638.325H1318.76L1311.81 607.025H1278.7L1271.75 638.325H1258.79ZM1282.17 591.649H1308.34L1295.26 533.26L1282.17 591.649Z" fill="#37A586"/>
<path d="M1384.71 638.325V510.197H1396.98L1437.62 606.659V510.197H1449.89V638.325H1437.62L1396.98 541.862V638.325H1384.71Z" fill="#37A586"/>
<path d="M1527 638.325V525.938H1503.03V510.197H1563.12V525.938H1539.27V638.325H1527Z" fill="#37A586"/>
<path fill-rule="evenodd" clip-rule="evenodd" d="M310.626 625.614C280.849 651.118 246.744 665.6 210.5 665.6C94.244 665.6 0 516.6 0 332.8C0 149 94.244 0 210.5 0C242.623 0 273.067 11.3764 300.306 31.72C298.555 35.2577 296.9 38.9907 295.352 42.9194C288.069 61.3973 282.336 83.7292 278.597 107.549C257.979 91.941 234.885 83.2 210.5 83.2C123.308 83.2 52.625 194.949 52.625 332.8C52.625 470.651 123.308 582.4 210.5 582.4C255.668 582.4 296.405 552.411 325.181 504.342C322.024 522.749 317.741 542.516 311.933 564.625C307.606 579.222 306.406 589.868 306.406 606.698C306.406 613.455 307.957 619.79 310.626 625.614ZM273.795 159.967C272.142 220.921 284.497 280.655 317.46 303.772C327.696 318.29 334.041 336.334 334.041 359.755C334.041 364.789 334.041 369.718 334.033 374.565C321.888 464.795 271.193 532.48 210.5 532.48C140.747 532.48 84.2 443.08 84.2 332.8C84.2 222.52 140.747 133.12 210.5 133.12C233.564 133.12 255.185 142.894 273.795 159.967Z" fill="#37A586"/>
<path d="M407.956 297.492C460.976 258.878 458.657 135.633 429.529 58.8898C399.946 -19.062 355.685 -20.1958 325.672 58.8898C296.701 135.217 294.03 258.737 347.244 297.492C356.99 311.847 364.442 340.037 364.442 363.195C364.442 432.91 367.152 487.697 344.169 568.08C340.048 582.513 338.123 593.434 338.123 602.471C338.123 637.28 355.83 665.6 377.6 665.6C399.37 665.6 417.077 637.28 417.077 602.471C417.077 593.434 415.153 582.513 411.033 568.08C387.729 486.582 390.76 428.017 390.76 363.195C390.76 340.037 398.211 311.847 407.956 297.492Z" fill="#37A586"/>
<path d="M1488.49 77.7867V64H1563V77.7867L1544.29 80.5441C1540.66 80.9117 1538.5 82.3823 1537.82 84.9559C1537.14 87.1617 1536.8 94.6985 1536.8 107.566V395.434C1536.8 408.301 1537.14 415.838 1537.82 418.044C1538.5 420.25 1540.66 421.721 1544.29 422.456L1563 425.213V439H1488.49V425.213L1507.2 422.456C1510.83 421.721 1512.99 420.25 1513.67 418.044C1514.35 415.838 1514.69 408.301 1514.69 395.434V107.566C1514.69 94.6985 1514.35 87.1617 1513.67 84.9559C1512.99 82.3823 1510.83 80.9117 1507.2 80.5441L1488.49 77.7867Z" fill="white"/>
<path d="M1500.39 350.016H1508.86V438.787H1359.5V425.002L1378.13 422.245C1381.74 421.51 1383.89 420.04 1384.56 417.834C1385.24 415.629 1385.58 408.093 1385.58 395.228V107.412C1385.58 94.5465 1385.24 87.0111 1384.56 84.8056C1383.89 82.2326 1381.74 80.7622 1378.13 80.3947L1359.5 77.6378V63.8535H1433.67V77.6378L1415.04 80.3947C1411.43 80.7622 1409.29 82.2326 1408.61 84.8056C1407.93 87.0111 1407.59 94.5465 1407.59 107.412V422.245H1472.96C1480.86 422.245 1485.6 421.51 1487.18 420.04C1488.99 418.202 1490.34 414.159 1491.25 407.91L1500.39 350.016Z" fill="white"/>
<path d="M1240.38 425.002V438.787H1176.37V425.002L1195 422.245C1197.48 421.878 1199.29 421.326 1200.42 420.591C1201.55 419.489 1202.56 417.099 1203.47 413.423C1204.59 409.748 1205.95 403.683 1207.53 395.228L1273.57 63.8535H1289.49L1356.21 395.228C1358.01 403.683 1359.37 409.748 1360.27 413.423C1361.17 417.099 1362.19 419.489 1363.32 420.591C1364.45 421.326 1366.14 421.878 1368.4 422.245L1387.02 425.002V438.787H1312.18V425.002L1330.81 422.245C1334.64 421.51 1336.68 420.04 1336.9 417.834C1337.13 415.261 1336 407.726 1333.51 395.228L1318.95 322.998H1233.27L1219.04 395.228C1216.56 407.726 1215.43 415.261 1215.66 417.834C1216.11 420.04 1218.14 421.51 1221.75 422.245L1240.38 425.002ZM1236.66 306.457H1315.9L1276.28 107.963L1236.66 306.457Z" fill="white"/>
<path d="M1023.83 77.0864V63.8535H1098V77.0864L1079.37 79.8433C1075.76 80.2109 1073.62 81.6812 1072.94 84.2543C1072.26 86.4597 1071.92 93.9952 1071.92 106.861V278.889L1159.3 101.347C1164.27 91.4221 1166.75 85.5408 1166.75 83.7029C1166.75 81.4974 1164.83 80.2109 1160.99 79.8433L1144.4 77.0864V63.8535H1206.04V77.0864L1189.44 79.8433C1187.41 80.2109 1185.72 80.7623 1184.36 81.4974C1183.23 82.2326 1181.88 84.0705 1180.3 87.0111C1178.72 89.9518 1176.23 94.7303 1172.85 101.347L1115.95 216.584L1184.36 395.228C1187.75 403.683 1190.23 409.748 1191.81 413.423C1193.39 417.099 1194.86 419.489 1196.22 420.591C1197.57 421.326 1199.38 421.878 1201.63 422.245L1218.57 425.002V438.787H1173.86L1101.73 245.255L1071.92 305.354V395.228C1071.92 408.093 1072.26 415.629 1072.94 417.834C1073.62 420.04 1075.76 421.51 1079.37 422.245L1098 425.002V438.787H1023.83V425.002L1042.46 422.245C1046.07 421.51 1048.22 420.04 1048.89 417.834C1049.57 415.629 1049.91 408.093 1049.91 395.228V106.861C1049.91 93.9952 1049.57 86.4597 1048.89 84.2543C1048.22 81.6812 1046.07 80.2109 1042.46 79.8433L1023.83 77.0864Z" fill="white"/>
<path d="M958.907 427.759C974.937 427.759 987.807 421.143 997.515 407.91C1007.22 394.677 1012.08 375.746 1012.08 351.118C1012.08 330.534 1008.24 313.441 1000.56 299.841C993.113 286.24 980.018 275.396 961.278 267.31L943.328 259.59C924.814 251.504 910.929 238.638 901.672 220.994C892.641 202.983 888.125 181.479 888.125 156.484C888.125 139.575 890.496 123.769 895.237 109.066C900.204 93.995 907.768 81.8648 917.928 72.6753C928.088 63.1182 941.183 58.3396 957.214 58.3396C975.05 58.3396 989.387 63.8533 1000.22 74.8808C1011.06 85.5406 1018.51 99.5087 1022.58 116.785C1026.87 134.061 1027.88 152.624 1025.63 172.474L1004.29 181.296C1006.77 147.111 1004.29 120.828 996.838 102.449C989.387 83.7027 976.292 74.3294 957.552 74.3294C942.425 74.3294 930.459 80.7621 921.653 93.6274C912.848 106.125 908.445 124.32 908.445 148.213C908.445 166.96 911.719 182.766 918.267 195.631C924.814 208.129 937.006 218.238 954.843 225.957L972.793 233.676C992.435 242.13 1007.22 255.731 1017.16 274.478C1027.32 292.857 1032.4 315.647 1032.4 342.848C1032.4 361.594 1029.69 378.687 1024.27 394.125C1019.08 409.196 1011.06 421.326 1000.22 430.516C989.387 439.705 975.615 444.3 958.907 444.3C947.618 444.3 936.781 441.543 926.395 436.03C916.009 430.148 906.978 419.856 899.301 405.153C891.851 390.449 886.771 369.865 884.061 343.399L902.688 333.474C904.043 358.102 907.429 377.4 912.848 391.368C918.493 404.969 925.379 414.526 933.507 420.04C941.635 425.186 950.102 427.759 958.907 427.759Z" fill="white"/>
<path d="M766.971 425.002V438.787H702.962V425.002L721.589 422.245C724.073 421.878 725.879 421.326 727.008 420.591C728.137 419.489 729.153 417.099 730.056 413.423C731.185 409.748 732.539 403.683 734.12 395.228L800.16 63.8535H816.078L882.796 395.228C884.602 403.683 885.957 409.748 886.86 413.423C887.763 417.099 888.779 419.489 889.908 420.591C891.037 421.326 892.73 421.878 894.988 422.245L913.615 425.002V438.787H838.769V425.002L857.395 422.245C861.234 421.51 863.266 420.04 863.492 417.834C863.717 415.261 862.588 407.726 860.105 395.228L845.542 322.998H759.859L745.635 395.228C743.151 407.726 742.022 415.261 742.248 417.834C742.699 420.04 744.731 421.51 748.344 422.245L766.971 425.002ZM763.245 306.457H842.494L802.87 107.963L763.245 306.457Z" fill="white"/>
<path d="M730.663 425.002V438.787H656.495V425.002L675.122 422.245C678.734 421.51 680.879 420.04 681.556 417.834C682.234 415.261 682.572 407.726 682.572 395.228V87.0111L606.372 394.677H592.148L514.931 87.0111V395.228C514.931 407.726 515.27 415.261 515.947 417.834C516.624 420.04 518.769 421.51 522.382 422.245L541.009 425.002V438.787H477V425.002L495.627 422.245C499.239 421.51 501.384 420.04 502.062 417.834C502.739 415.261 503.078 407.726 503.078 395.228V107.412C503.078 94.5465 502.739 87.0111 502.062 84.8056C501.384 82.2326 499.239 80.7622 495.627 80.3947L477 77.6378V63.8535H532.542L605.356 353.875L676.476 63.8535H730.663V77.6378L712.037 80.3947C708.424 80.7622 706.279 82.2326 705.602 84.8056C704.925 87.0111 704.586 94.5465 704.586 107.412V395.228C704.586 407.726 704.925 415.261 705.602 417.834C706.279 420.04 708.424 421.51 712.037 422.245L730.663 425.002Z" fill="white"/>
</svg>
