<svg width="1589" height="666" viewBox="0 0 1589 666" fill="none" xmlns="http://www.w3.org/2000/svg">
<path d="M488 638.325V510.197H515.902C522.308 510.197 527.556 511.906 531.647 515.322C535.815 518.738 538.902 523.375 540.909 529.233C542.916 534.969 543.919 541.375 543.919 548.452C543.919 556.384 542.569 563.583 539.867 570.051C537.243 576.519 533.113 581.155 527.479 583.962L544.73 638.325H530.489L514.744 586.707H500.272V638.325H488ZM500.272 572.064H515.207C520.764 572.064 524.816 569.929 527.364 565.658C529.987 561.386 531.3 555.835 531.3 549.001C531.3 542.167 530.026 536.737 527.479 532.71C524.932 528.562 520.803 526.487 515.091 526.487H500.272V572.064Z" fill="#6AAE68"/>
<path d="M600.116 638.325V510.197H651.636V525.938H612.389V565.841H648.163V581.216H612.389V622.583H651.636V638.325H600.116Z" fill="#6AAE68"/>
<path d="M734.681 640.521C728.737 640.521 723.527 638.874 719.051 635.579C714.574 632.284 711.062 627.587 708.515 621.485C706.045 615.383 704.772 608.123 704.695 599.703H717.662C717.738 606.537 719.244 612.333 722.177 617.092C725.109 621.851 729.239 624.23 734.565 624.23C739.273 624.23 742.939 622.462 745.563 618.922C748.264 615.261 749.616 610.624 749.616 605.011C749.616 600.497 748.959 596.836 747.647 594.029C746.412 591.222 744.675 588.904 742.437 587.073C740.276 585.243 737.768 583.596 734.912 582.131C732.056 580.667 729.045 579.081 725.882 577.372C719.63 574.077 714.921 569.806 711.757 564.559C708.669 559.313 707.126 552.417 707.126 543.876C707.048 536.676 708.09 530.392 710.252 525.023C712.49 519.653 715.578 515.505 719.514 512.576C723.527 509.526 728.197 508 733.523 508C738.771 508 743.364 509.526 747.3 512.576C751.313 515.626 754.439 519.898 756.678 525.389C758.915 530.759 760.073 537.042 760.151 544.242H747.184C747.184 540.947 746.643 537.836 745.563 534.907C744.483 531.857 742.901 529.354 740.817 527.402C738.733 525.45 736.186 524.474 733.175 524.474C729.316 524.352 726.113 525.876 723.566 529.05C721.096 532.223 719.861 536.616 719.861 542.229C719.861 547.232 720.788 551.076 722.64 553.76C724.492 556.444 727.039 558.702 730.281 560.533C733.523 562.241 737.228 564.255 741.395 566.573C745.409 568.648 748.998 571.149 752.163 574.077C755.326 577.006 757.836 580.85 759.688 585.609C761.617 590.368 762.582 596.408 762.582 603.73C762.582 610.198 761.54 616.238 759.456 621.851C757.372 627.342 754.246 631.857 750.079 635.396C745.911 638.812 740.778 640.521 734.681 640.521Z" fill="#6AAE68"/>
<path d="M835.195 638.325V525.938H811.23V510.197H871.317V525.938H847.468V638.325H835.195Z" fill="#6AAE68"/>
<path d="M910.452 638.325L940.322 510.197H953.752L983.391 638.325H970.424L963.477 607.025H930.366L923.419 638.325H910.452ZM933.839 591.649H960.004L946.921 533.26L933.839 591.649Z" fill="#6AAE68"/>
<path d="M1063.2 640.521C1057.41 640.521 1052.16 638.752 1047.46 635.213C1042.83 631.552 1039.12 625.999 1036.34 618.556C1033.64 611.113 1032.29 601.655 1032.29 590.185V510.197H1044.56V590.368C1044.56 601.595 1046.26 609.832 1049.66 615.078C1053.04 620.325 1057.64 622.949 1063.43 622.949C1069.14 622.949 1073.7 620.325 1077.09 615.078C1080.48 609.832 1082.19 601.595 1082.19 590.368V510.197H1094.46V590.185C1094.46 601.655 1093.03 611.113 1090.18 618.556C1087.4 625.999 1083.61 631.552 1078.83 635.213C1074.12 638.752 1068.91 640.521 1063.2 640.521Z" fill="#6AAE68"/>
<path d="M1151.87 638.325V510.197H1179.78C1186.19 510.197 1191.44 511.906 1195.52 515.322C1199.69 518.738 1202.78 523.375 1204.78 529.233C1206.79 534.969 1207.79 541.375 1207.79 548.452C1207.79 556.384 1206.45 563.583 1203.74 570.051C1201.12 576.519 1197 581.155 1191.35 583.962L1208.6 638.325H1194.36L1178.62 586.707H1164.15V638.325H1151.87ZM1164.15 572.064H1179.08C1184.64 572.064 1188.69 569.929 1191.24 565.658C1193.87 561.386 1195.17 555.835 1195.17 549.001C1195.17 542.167 1193.9 536.737 1191.35 532.71C1188.81 528.562 1184.68 526.487 1178.97 526.487H1164.15V572.064Z" fill="#6AAE68"/>
<path d="M1258.79 638.325L1288.66 510.197H1302.09L1331.73 638.325H1318.76L1311.81 607.025H1278.7L1271.75 638.325H1258.79ZM1282.17 591.649H1308.34L1295.26 533.26L1282.17 591.649Z" fill="#6AAE68"/>
<path d="M1384.71 638.325V510.197H1396.98L1437.62 606.659V510.197H1449.89V638.325H1437.62L1396.98 541.862V638.325H1384.71Z" fill="#6AAE68"/>
<path d="M1527 638.325V525.938H1503.03V510.197H1563.12V525.938H1539.27V638.325H1527Z" fill="#6AAE68"/>
<path fill-rule="evenodd" clip-rule="evenodd" d="M310.626 625.614C280.849 651.118 246.744 665.6 210.5 665.6C94.244 665.6 0 516.6 0 332.8C0 149 94.244 0 210.5 0C242.623 0 273.067 11.3764 300.306 31.72C298.555 35.2577 296.9 38.9907 295.352 42.9194C288.069 61.3973 282.336 83.7292 278.597 107.549C257.979 91.941 234.885 83.2 210.5 83.2C123.308 83.2 52.625 194.949 52.625 332.8C52.625 470.651 123.308 582.4 210.5 582.4C255.668 582.4 296.405 552.411 325.181 504.342C322.024 522.749 317.741 542.516 311.933 564.625C307.606 579.222 306.406 589.868 306.406 606.698C306.406 613.455 307.957 619.79 310.626 625.614ZM273.795 159.967C272.142 220.921 284.497 280.655 317.46 303.772C327.696 318.29 334.041 336.334 334.041 359.755C334.041 364.789 334.041 369.718 334.033 374.565C321.888 464.795 271.193 532.48 210.5 532.48C140.747 532.48 84.2 443.08 84.2 332.8C84.2 222.52 140.747 133.12 210.5 133.12C233.564 133.12 255.185 142.894 273.795 159.967Z" fill="#6AAE68"/>
<path d="M407.956 297.492C460.976 258.878 458.657 135.633 429.529 58.8898C399.946 -19.062 355.685 -20.1958 325.672 58.8898C296.701 135.217 294.03 258.737 347.244 297.492C356.99 311.847 364.442 340.037 364.442 363.195C364.442 432.91 367.152 487.697 344.169 568.08C340.048 582.513 338.123 593.434 338.123 602.471C338.123 637.28 355.83 665.6 377.6 665.6C399.37 665.6 417.077 637.28 417.077 602.471C417.077 593.434 415.153 582.513 411.033 568.08C387.729 486.582 390.76 428.017 390.76 363.195C390.76 340.037 398.211 311.847 407.956 297.492Z" fill="#6AAE68"/>
<path d="M1424.88 77.6378V63.8535H1503.48C1521.88 63.8535 1536.08 72.3079 1546.08 89.2166C1556.28 105.758 1561.38 128.18 1561.38 156.484V175.782C1561.38 198.94 1557.98 218.421 1551.18 234.227C1544.38 250.033 1534.58 260.51 1521.78 265.656L1561.08 395.228C1563.68 403.683 1565.58 409.748 1566.78 413.423C1568.18 417.099 1569.48 419.489 1570.68 420.591C1571.88 421.326 1573.48 421.878 1575.48 422.245L1588.98 425.002V438.787H1550.88L1501.38 268.964H1467.48V395.228C1467.48 408.093 1467.78 415.629 1468.38 417.834C1468.98 420.04 1470.88 421.51 1474.08 422.245L1490.58 425.002V438.787H1424.88V425.002L1441.38 422.245C1444.58 421.51 1446.48 420.04 1447.08 417.834C1447.68 415.629 1447.98 408.093 1447.98 395.228V107.412C1447.98 94.5465 1447.68 87.0111 1447.08 84.8056C1446.48 82.2326 1444.58 80.7622 1441.38 80.3947L1424.88 77.6378ZM1503.48 80.3947H1467.48V252.423H1503.48C1514.68 252.423 1523.68 245.623 1530.48 232.022C1537.48 218.054 1540.98 199.307 1540.98 175.782V156.484C1540.98 132.591 1537.48 114.028 1530.48 100.795C1523.68 87.1949 1514.68 80.3947 1503.48 80.3947Z" fill="white"/>
<path d="M1371 77.7867V64H1437V77.7867L1420.42 80.5441C1417.21 80.9117 1415.3 82.3823 1414.7 84.9559C1414.1 87.1617 1413.79 94.6985 1413.79 107.566V395.434C1413.79 408.301 1414.1 415.838 1414.7 418.044C1415.3 420.25 1417.21 421.721 1420.42 422.456L1437 425.213V439H1371V425.213L1387.58 422.456C1390.79 421.721 1392.7 420.25 1393.3 418.044C1393.9 415.838 1394.21 408.301 1394.21 395.434V107.566C1394.21 94.6985 1393.9 87.1617 1393.3 84.9559C1392.7 82.3823 1390.79 80.9117 1387.58 80.5441L1371 77.7867Z" fill="white"/>
<path d="M1381.54 350.016H1389.04V438.787H1256.74V425.002L1273.24 422.245C1276.44 421.51 1278.34 420.04 1278.94 417.834C1279.54 415.629 1279.84 408.093 1279.84 395.228V107.412C1279.84 94.5465 1279.54 87.0111 1278.94 84.8056C1278.34 82.2326 1276.44 80.7622 1273.24 80.3947L1256.74 77.6378V63.8535H1322.44V77.6378L1305.94 80.3947C1302.74 80.7622 1300.84 82.2326 1300.24 84.8056C1299.64 87.0111 1299.34 94.5465 1299.34 107.412V422.245H1357.24C1364.24 422.245 1368.44 421.51 1369.84 420.04C1371.44 418.202 1372.64 414.159 1373.44 407.91L1381.54 350.016Z" fill="white"/>
<path d="M1151.22 425.002V438.787H1094.52V425.002L1111.02 422.245C1113.22 421.878 1114.82 421.326 1115.82 420.591C1116.82 419.489 1117.72 417.099 1118.52 413.423C1119.52 409.748 1120.72 403.683 1122.12 395.228L1180.62 63.8535H1194.72L1253.82 395.228C1255.42 403.683 1256.62 409.748 1257.42 413.423C1258.22 417.099 1259.12 419.489 1260.12 420.591C1261.12 421.326 1262.62 421.878 1264.62 422.245L1281.12 425.002V438.787H1214.82V425.002L1231.32 422.245C1234.72 421.51 1236.52 420.04 1236.72 417.834C1236.92 415.261 1235.92 407.726 1233.72 395.228L1220.82 322.998H1144.92L1132.32 395.228C1130.12 407.726 1129.12 415.261 1129.32 417.834C1129.72 420.04 1131.52 421.51 1134.72 422.245L1151.22 425.002ZM1147.92 306.457H1218.12L1183.02 107.963L1147.92 306.457Z" fill="white"/>
<path d="M959.395 77.0864V63.8535H1025.09V77.0864L1008.59 79.8433C1005.39 80.2109 1003.49 81.6812 1002.89 84.2543C1002.29 86.4597 1001.99 93.9952 1001.99 106.861V278.889L1079.39 101.347C1083.79 91.4221 1085.99 85.5408 1085.99 83.7029C1085.99 81.4974 1084.29 80.2109 1080.89 79.8433L1066.19 77.0864V63.8535H1120.79V77.0864L1106.09 79.8433C1104.29 80.2109 1102.79 80.7623 1101.59 81.4974C1100.59 82.2326 1099.39 84.0705 1097.99 87.0111C1096.59 89.9518 1094.39 94.7303 1091.39 101.347L1040.99 216.584L1101.59 395.228C1104.59 403.683 1106.79 409.748 1108.19 413.423C1109.59 417.099 1110.89 419.489 1112.09 420.591C1113.29 421.326 1114.89 421.878 1116.89 422.245L1131.89 425.002V438.787H1092.29L1028.39 245.255L1001.99 305.354V395.228C1001.99 408.093 1002.29 415.629 1002.89 417.834C1003.49 420.04 1005.39 421.51 1008.59 422.245L1025.09 425.002V438.787H959.395V425.002L975.895 422.245C979.094 421.51 980.995 420.04 981.595 417.834C982.195 415.629 982.495 408.093 982.495 395.228V106.861C982.495 93.9952 982.195 86.4597 981.595 84.2543C980.995 81.6812 979.094 80.2109 975.895 79.8433L959.395 77.0864Z" fill="white"/>
<path d="M901.883 427.759C916.083 427.759 927.483 421.143 936.083 407.91C944.683 394.677 948.983 375.746 948.983 351.118C948.983 330.534 945.583 313.441 938.783 299.841C932.183 286.24 920.583 275.396 903.983 267.31L888.083 259.59C871.683 251.504 859.383 238.638 851.183 220.994C843.183 202.983 839.183 181.479 839.183 156.484C839.183 139.575 841.283 123.769 845.483 109.066C849.883 93.995 856.583 81.8648 865.583 72.6753C874.583 63.1182 886.183 58.3396 900.383 58.3396C916.183 58.3396 928.883 63.8533 938.483 74.8808C948.083 85.5406 954.683 99.5087 958.283 116.785C962.083 134.061 962.983 152.624 960.983 172.474L942.083 181.296C944.283 147.111 942.083 120.828 935.483 102.449C928.883 83.7027 917.283 74.3294 900.683 74.3294C887.283 74.3294 876.683 80.7621 868.883 93.6274C861.083 106.125 857.183 124.32 857.183 148.213C857.183 166.96 860.083 182.766 865.883 195.631C871.683 208.129 882.483 218.238 898.283 225.957L914.183 233.676C931.583 242.13 944.683 255.731 953.483 274.478C962.483 292.857 966.983 315.647 966.983 342.848C966.983 361.594 964.583 378.687 959.783 394.125C955.183 409.196 948.083 421.326 938.483 430.516C928.883 439.705 916.683 444.3 901.883 444.3C891.883 444.3 882.283 441.543 873.083 436.03C863.883 430.148 855.883 419.856 849.083 405.153C842.483 390.449 837.983 369.865 835.583 343.399L852.083 333.474C853.283 358.102 856.283 377.4 861.083 391.368C866.083 404.969 872.183 414.526 879.383 420.04C886.583 425.186 894.083 427.759 901.883 427.759Z" fill="white"/>
<path d="M731.862 425.002V438.787H675.162V425.002L691.662 422.245C693.862 421.878 695.462 421.326 696.462 420.591C697.462 419.489 698.362 417.099 699.162 413.423C700.162 409.748 701.362 403.683 702.762 395.228L761.262 63.8535H775.362L834.462 395.228C836.062 403.683 837.262 409.748 838.062 413.423C838.862 417.099 839.762 419.489 840.762 420.591C841.762 421.326 843.262 421.878 845.262 422.245L861.762 425.002V438.787H795.462V425.002L811.962 422.245C815.362 421.51 817.162 420.04 817.362 417.834C817.562 415.261 816.562 407.726 814.362 395.228L801.462 322.998H725.562L712.962 395.228C710.762 407.726 709.762 415.261 709.962 417.834C710.362 420.04 712.162 421.51 715.362 422.245L731.862 425.002ZM728.562 306.457H798.762L763.662 107.963L728.562 306.457Z" fill="white"/>
<path d="M699.7 425.002V438.787H634V425.002L650.5 422.245C653.7 421.51 655.6 420.04 656.2 417.834C656.8 415.261 657.1 407.726 657.1 395.228V87.0111L589.6 394.677H577L508.6 87.0111V395.228C508.6 407.726 508.9 415.261 509.5 417.834C510.1 420.04 512 421.51 515.2 422.245L531.7 425.002V438.787H475V425.002L491.5 422.245C494.7 421.51 496.6 420.04 497.2 417.834C497.8 415.261 498.1 407.726 498.1 395.228V107.412C498.1 94.5465 497.8 87.0111 497.2 84.8056C496.6 82.2326 494.7 80.7622 491.5 80.3947L475 77.6378V63.8535H524.2L588.7 353.875L651.7 63.8535H699.7V77.6378L683.2 80.3947C680 80.7622 678.1 82.2326 677.5 84.8056C676.9 87.0111 676.6 94.5465 676.6 107.412V395.228C676.6 407.726 676.9 415.261 677.5 417.834C678.1 420.04 680 421.51 683.2 422.245L699.7 425.002Z" fill="white"/>
</svg>
